<?xml version="1.0" ?><!DOCTYPE svg  PUBLIC '-//W3C//DTD SVG 1.1//EN'  'http://www.w3.org/Graphics/SVG/1.1/DTD/svg11.dtd'><svg enable-background="new 0 0 512 512" id="Layer_1" version="1.1" viewBox="0 0 512 512" xml:space="preserve" xmlns="http://www.w3.org/2000/svg" xmlns:xlink="http://www.w3.org/1999/xlink"><g><circle cx="256" cy="256" fill="#28B8F7" r="244.5"/><path d="M162.1,194.3c-13.7,9.3-27.6,21.6-42.5,36.1c-7.4,7.2-13.9,15-19.5,23.2l-3,4.5   c-7.9,11.6-9.6,24.1-4.6,33.3c0.5,1,1.1,1.9,1.7,2.7H75.3c-21.6,0-39.2-17.8-39.2-39.2c0-15.7,8.7-28.5,21.4-34.9   c0-0.7,0-0.7,0-0.7c0-25.7,20.7-46.3,46.3-46.3c18.5,0,34.4,10.7,41.9,26.4c4.2-3.6,9.5-5,15.1-5   C161.2,194.3,161.6,194.3,162.1,194.3z" fill="#FFFFFF"/><path d="M207.1,258.4c0,10.3-4.5,19.7-11.8,26.3c-6.3,5.8-14.7,9.3-23.9,9.3H94.2c-0.6-0.8-1.2-1.7-1.7-2.7   c-5-9.2-3.3-21.6,4.6-33.3l3-4.5c5.6-8.2,12.1-16,19.5-23.2c14.9-14.5,28.9-26.9,42.5-36.1c0,0,0,0,0,0   c13.2,0.6,23.7,11.1,23.7,24.9c0,2.1-0.4,4.3-0.9,5.7C197.8,230.6,207.1,243.4,207.1,258.4z" fill="#DBDBDB"/><path d="M449.2,365c0,21.4-23.5,39.2-52.4,39.2H268.8c4.4-3.6,8.7-7.5,12.7-11.7c34-34.9,55-63,54.5-95.2   c0-3.6-0.4-7.1-1-10.8c7.3-2.2,15.2-3.4,23.5-3.4c34.2,0,61.9,20.7,61.9,46.3c0,0,0,0,0,0.7C437.6,336.5,449.2,349.3,449.2,365z" fill="#FFFFFF"/><path d="M336.1,297.3c0.5,32.2-20.5,60.3-54.5,95.2c-4,4.2-8.3,8.1-12.7,11.7h-0.8c-26.3,0-47.6-16.4-47.6-35.6   c0-15,12.4-27.8,29.8-33.5c-0.7-1.4-1.2-3.6-1.2-5.7c0-14.3,14.9-24.9,33.4-24.9c7.6,0,14.6,1.4,20.3,5   c6.6-10.4,18.2-18.6,32.5-22.9C335.7,290.1,336,293.7,336.1,297.3z" fill="#DBDBDB"/><polygon fill="#F99D0B" points="181.1,381.4 152.4,383.6 129.8,383.9 121.6,350.9 147.1,327.8 152.7,326.5 165.4,323.4 191,348.9    187.4,360.6  "/><path d="M179.9,394.6c-10.1,6.6-23.3,7.1-32.2,14.9c2-6.8,4.9-10.3,9.2-15.2c-17.1,1.7-37.7,6.4-47.5,19.6   c0,0-10-19.2,6.5-47.4c-6.6-0.4-12.6,6.3-14.7,11.8c-1.3-8.1,1.7-60.4,47.8-57.9c5,0.3,10.5,1.2,16.5,2.9c-4,1.3-7.7,3.2-11.1,5.5   c-15.3,10.6-24.1,30.6-20.9,48.5c3-4.7,14.2-13.8,26.3-14.5c-7.9,5.3-8.8,12.7-8.8,12.7s7-4.9,17.1-6.8c6.5-1.2,12.7-3.2,17.6-9.5   c2-2.6,3.9-6,5.4-10.5c1.6,5.9,2.6,11,3,15.6C195.2,379,190.3,387.8,179.9,394.6z" fill="#FF4800"/><path d="M252.8,403.7l-4.5,3c-8.3,5.6-17.1,7.2-22.8,4.1c-5.7-3.1-7.4-10.5-4.3-19c4.3-11.9,7.3-24.2,9.9-36.9   c3.4-17.3,5.9-35.3,8.9-54.3l73.9-42.8c8.1,14.3,12.1,27.1,12.3,39.6c0.4,27.2-17.3,52.8-51.7,88.1   C267.8,392.3,260.4,398.5,252.8,403.7z" fill="#FF2222"/><path d="M211.5,272.1c-19,3-37.1,5.5-54.3,8.9c-12.7,2.5-25,5.6-36.9,9.9c-8.5,3.1-15.9,1.4-19-4.3   s-1.6-14.5,4.1-22.8l3-4.5c5.2-7.6,11.4-15,18.2-21.6c35.3-34.4,60.9-52.1,88.1-51.7c12.5,0.2,25.4,4.2,39.6,12.3L211.5,272.1z" fill="#FF2222"/><path d="M254.2,198.2l-42.8,73.9c-19,3-37.1,5.5-54.3,8.9c5.3-12.8,12.3-26.7,20.9-41.4c10.7-18,23.2-36.3,36.6-53.6   C227.1,186.1,240,190.1,254.2,198.2z" opacity="0.1"/><path d="M326.1,297.4c-17.4,13.4-35.6,25.9-53.6,36.6c-14.7,8.6-28.6,15.6-41.5,20.9c3.4-17.3,5.9-35.3,8.9-54.3   l73.9-42.8C321.9,272,325.9,284.9,326.1,297.4z" opacity="0.1"/><path d="M194,364.5l-1-0.6c-1.9-1.1-3.7-2.2-5.5-3.3c-0.6-0.4-1.3-0.8-1.9-1.2c-6.4-4.3-12.5-9.3-18.1-14.8   c-4.9-4.9-9.3-10.1-13.2-15.6c-0.6-0.8-1.1-1.6-1.6-2.4c-1.3-2-2.6-3.9-3.7-6c5,0.3,10.5,1.2,16.5,2.9l25.5,25.5   C192.6,354.7,193.6,359.9,194,364.5z" opacity="0.1"/><path d="M367.8,249.2c-29.1,29.1-65.5,56.9-99.8,77.2c-26,15.2-50.9,26.1-70.8,29.8c-8.1-4.6-16.1-10.5-23.5-17.9   c-7.4-7.4-13.4-15.4-17.9-23.5c3.7-19.8,14.6-44.8,29.8-70.8c20.3-34.3,48.1-70.7,77.2-99.8c9.5-9.5,19.3-17.3,29-23.5   c2-1.3,4-2.5,6.1-3.7c13.2-7.7,26.3-12.6,38.6-15.7c26.9-6.8,50-4.7,62.9-2.3c7,1.3,12.5,6.7,13.7,13.7c2.4,13,4.5,36.1-2.3,62.9   c-3.1,12.3-8.1,25.3-15.7,38.6c-1.2,2-2.4,4-3.7,6C385.1,229.9,377.4,239.7,367.8,249.2z" fill="#F7F7F7"/><path d="M273.6,238.4c-15.2-15.2-15.2-39.8,0-55c15.2-15.2,39.8-15.2,55,0s15.2,39.8,0,55   C313.5,253.5,288.8,253.5,273.6,238.4z" fill="#C9C9C9"/><circle cx="301.2" cy="210.8" fill="#26ADDD" r="30.1"/><path d="M391.3,220.2c-20.1-15-42.7-34.5-53.8-45.7c-10.6-10.6-30-33.1-45.7-53.8c2-1.3,4-2.5,6.1-3.7   c13.2-7.7,26.3-12.6,38.6-15.7c26.9-6.8,50-4.7,62.9-2.3c7,1.3,12.5,6.7,13.7,13.7c2.4,13,4.5,36.1-2.3,62.9   c-3.1,12.3-8.1,25.3-15.7,38.6C393.8,216.2,392.6,218.2,391.3,220.2z" fill="#FF2222"/></g></svg>